<?xml version="1.0" standalone="no"?><!DOCTYPE svg PUBLIC "-//W3C//DTD SVG 1.1//EN" "http://www.w3.org/Graphics/SVG/1.1/DTD/svg11.dtd" [<!ENTITY nbsp " ">]><svg data-noselect="" viewBox="-6.376323490084559 94.30992053293326 490.2294922429646 367.67211918222347" width="490.2294922429646" ref="svg_canvas" height="367.67211918222347" preserveAspectRatio="none" version="1.1" xmlns="http://www.w3.org/2000/svg" style="background: #FFFFFF;">
    <def></def>
    <g id="shape_JZfIU9uh3q" ref="shape_JZfIU9uh3q" key="shape_JZfIU9uh3q" transform="translate(73.62367650991544,185.27816772460997) rotate(0,92.867812399435,92.867812399435) scale(1,1)" style="cursor:move;display:inline;opacity:1;" filter="">
            <g style="display:inline"><rect fill="rgba(0,0,0,0)" width="180.9356999494791" height="205.73562479887" x="-10" y="-10"></rect><svg version="1.1" id="图层_1" xmlns="http://www.w3.org/2000/svg" xmlns:xlink="http://www.w3.org/1999/xlink" x="0px" y="0px" width="160.9356999494791" height="185.73562479887" viewBox="4 3.299999952316284 91.5 105.5999984741211" style="enable-background:new 0 0 99 111;" xml:space="preserve" class="style-removed" preserveAspectRatio="none" data-parent="shape_JZfIU9uh3q">

<path d="M44.5,66.5v9.1c0,5.5-0.9,6.9-0.9,6.9c-0.2,0.3-0.8,1.1-3.7,1.1c-1.3,0-2.3-0.2-3.1-0.5c-0.6-0.3-1-0.6-1.4-1.2
	c-0.1-0.2-0.7-1.2-1-3.8c-0.1-0.9-0.2-3.2-0.2-9L34,66.5H4l0.1,2.6c0,7.1,0.6,12.9,1.7,17.2c1.2,4.7,3.2,8.9,6.1,12.2
	c3,3.5,7,6.2,11.9,7.9c4.6,1.7,10,2.5,16.1,2.5c5.9,0,11.6-1.1,16.8-3.3c5.6-2.3,10.1-5.8,13.4-10.5c3.4-4.7,5.1-10.6,5.1-17.4V66.5
	H44.5z" fill="#22BAAE"></path>
<rect x="64.7" y="31.4" width="30.7" height="24.4" fill="#22BAAE"></rect>
<rect x="64.7" y="3.3" width="30.7" height="21.8" fill="#22BAAE"></rect>
<polygon points="44.5,66.5 64.7,55.8 95.5,55.8 75.2,66.5 " fill="#91DBD8"></polygon>
</svg></g>
        </g><g id="shape_RwMyvYnIc6" ref="shape_RwMyvYnIc6" key="shape_RwMyvYnIc6" transform="translate(163.10315349395,-54.30531346562998) rotate(0,367.93856232127,311.575) scale(1,1)" style="cursor:move;display:inline;opacity:1;" filter="">
            <g style="display:inline"><svg xmlns="http://www.w3.org/2000/svg" version="1.1" xmlns:xlink="http://www.w3.org/1999/xlink" width="425" height="623.15" viewBox="0 0 425 623.15" preserveAspectRatio="none" data-parent="shape_RwMyvYnIc6"><rect fill="rgba(0,0,0,0)" width="70" height="88" x="88.75" y="267.575"></rect><g data-width="69.13624999999999" transform="translate(88.75, 0)"><path d="M65.05 13.49L43.49 13.49L34.26-6.04L24.76 13.49L4.08 13.49L24.05-27.60L4.97-67.72L25.65-67.72L34.61-49.34L43.49-67.72L64.17-67.72L44.91-28.04L65.05 13.49Z" transform="translate(0 342.575) skewX(0)" fill="rgb(49, 49, 49)" stroke="rgb(49, 49, 49)" stroke-width="0.148" data-glyph-w="69.13624999999999" data-glyph-h="90.52499999999999" data-glyph-ascender="76.325" data-glyph-descender="-14.2"></path></g></svg></g>
        </g><g id="shape_I14yRV7qIA" ref="shape_I14yRV7qIA" key="shape_I14yRV7qIA" transform="translate(215.85316875288,184.36227371372) rotate(0,286.35884113021,144.66) scale(1,1)" style="cursor:move;display:inline;opacity:1;" filter="">
            <g style="display:inline"><svg xmlns="http://www.w3.org/2000/svg" version="1.1" xmlns:xlink="http://www.w3.org/1999/xlink" width="296" height="289.32" viewBox="0 0 296 289.32" preserveAspectRatio="none" data-parent="shape_I14yRV7qIA"><rect fill="rgba(0,0,0,0)" width="152" height="36" x="36" y="126.66"></rect><g data-width="151.92" transform="translate(36, 0)"><path d="M6.30-7.27L6.30-21.82Q6.70-21.89 7.56-22.01Q8.42-22.14 9.22-22.14L9.22-22.14Q10.04-22.14 10.67-22.01Q11.30-21.89 11.74-21.56Q12.17-21.24 12.38-20.66Q12.60-20.09 12.60-19.15L12.60-19.15L12.60-5.83Q12.60-2.63 10.76-1.03Q8.93 0.58 5.36 0.58L5.36 0.58Q3.49 0.58 2.34 0L2.34 0Q1.51-0.40 1.13-1.08Q0.76-1.76 0.76-2.63L0.76-2.63Q0.76-3.35 0.95-3.89Q1.15-4.43 1.44-4.75L1.44-4.75Q2.12-4.61 2.61-4.55Q3.10-4.50 3.67-4.50L3.67-4.50Q5.08-4.50 5.69-5.20Q6.30-5.90 6.30-7.27L6.30-7.27Z" transform="translate(0 150.66) " fill="rgb(49, 49, 49)" stroke="rgb(49, 49, 49)" stroke-width="0.06" data-glyph-w="14.832000000000003" data-glyph-h="72.432" data-glyph-ascender="42.660000000000004" data-glyph-descender="-29.772000000000002"></path><path d="M8.64-19.15L8.64-0.14Q8.24-0.04 7.40 0.07Q6.55 0.18 5.72 0.18L5.72 0.18Q4.90 0.18 4.27 0.05Q3.64-0.07 3.20-0.40Q2.77-0.72 2.56-1.30Q2.34-1.87 2.34-2.81L2.34-2.81L2.34-21.82Q2.74-21.89 3.60-22.01Q4.46-22.14 5.26-22.14L5.26-22.14Q6.08-22.14 6.71-22.01Q7.34-21.89 7.78-21.56Q8.21-21.24 8.42-20.66Q8.64-20.09 8.64-19.15L8.64-19.15Z" transform="translate(14.832000000000003 150.66) " fill="rgb(49, 49, 49)" stroke="rgb(49, 49, 49)" stroke-width="0.06" data-glyph-w="10.98" data-glyph-h="72.432" data-glyph-ascender="42.660000000000004" data-glyph-descender="-29.772000000000002"></path><path d="M6.98-21.17L6.98-21.17Q7.60-21.53 8.84-21.85Q10.08-22.18 11.34-22.18L11.34-22.18Q13.14-22.18 14.53-21.65Q15.91-21.13 16.31-20.02L16.31-20.02Q16.96-18.14 17.71-15.66Q18.47-13.18 19.22-10.53Q19.98-7.88 20.70-5.31Q21.42-2.74 21.96-0.76L21.96-0.76Q21.53-0.25 20.66 0.05Q19.80 0.36 18.61 0.36L18.61 0.36Q17.75 0.36 17.15 0.22Q16.56 0.07 16.18-0.22Q15.80-0.50 15.57-0.97Q15.34-1.44 15.16-2.05L15.16-2.05L14.51-4.54L7.99-4.54Q7.70-3.46 7.42-2.30Q7.13-1.15 6.84-0.07L6.84-0.07Q6.34 0.11 5.78 0.23Q5.22 0.36 4.43 0.36L4.43 0.36Q2.59 0.36 1.71-0.27Q0.83-0.90 0.83-2.02L0.83-2.02Q0.83-2.52 0.97-3.02Q1.12-3.53 1.30-4.21L1.30-4.21Q1.55-5.18 2.00-6.62Q2.45-8.06 2.99-9.74Q3.53-11.41 4.14-13.18Q4.75-14.94 5.29-16.51Q5.83-18.07 6.28-19.30Q6.73-20.52 6.98-21.17ZM11.52-16.52L11.30-16.52Q10.80-15.01 10.17-13.16Q9.54-11.30 9.04-9.40L9.04-9.40L13.50-9.40Q13.00-11.34 12.47-13.19Q11.95-15.05 11.52-16.52L11.52-16.52Z" transform="translate(25.812000000000005 150.66) " fill="rgb(49, 49, 49)" stroke="rgb(49, 49, 49)" stroke-width="0.06" data-glyph-w="22.572000000000003" data-glyph-h="72.432" data-glyph-ascender="42.660000000000004" data-glyph-descender="-29.772000000000002"></path><path d="M22.10-19.26L22.10-0.76Q21.60-0.25 20.65 0.02Q19.69 0.29 18.36 0.29L18.36 0.29Q17.03 0.29 15.84-0.11Q14.65-0.50 13.90-2.02L13.90-2.02L10.33-9.29Q9.79-10.40 9.36-11.39Q8.93-12.38 8.42-13.68L8.42-13.68L8.21-13.64Q8.35-11.70 8.37-9.68Q8.39-7.67 8.39-5.72L8.39-5.72L8.39-0.14Q7.99-0.04 7.18 0.07Q6.37 0.18 5.58 0.18L5.58 0.18Q4.79 0.18 4.18 0.07Q3.56-0.04 3.17-0.36Q2.77-0.68 2.56-1.24Q2.34-1.80 2.34-2.70L2.34-2.70L2.34-20.70Q2.84-21.42 3.89-21.78Q4.93-22.14 6.12-22.14L6.12-22.14Q7.45-22.14 8.66-21.73Q9.86-21.31 10.58-19.84L10.58-19.84L14.18-12.56Q14.72-11.45 15.16-10.46Q15.59-9.47 16.09-8.17L16.09-8.17L16.27-8.21Q16.13-10.15 16.09-12.10Q16.06-14.04 16.06-15.98L16.06-15.98L16.06-21.82Q16.45-21.92 17.26-22.03Q18.07-22.14 18.86-22.14L18.86-22.14Q20.45-22.14 21.28-21.58Q22.10-21.02 22.10-19.26L22.10-19.26Z" transform="translate(48.38400000000001 150.66) " fill="rgb(49, 49, 49)" stroke="rgb(49, 49, 49)" stroke-width="0.06" data-glyph-w="24.444000000000003" data-glyph-h="72.432" data-glyph-ascender="42.660000000000004" data-glyph-descender="-29.772000000000002"></path><path d="M22.10-10.91L22.10-3.56Q22.10-2.45 21.71-1.91Q21.31-1.37 20.45-0.86L20.45-0.86Q19.94-0.58 19.19-0.31Q18.43-0.04 17.53 0.16Q16.63 0.36 15.64 0.47Q14.65 0.58 13.68 0.58L13.68 0.58Q11.09 0.58 8.82-0.13Q6.55-0.83 4.88-2.25Q3.20-3.67 2.23-5.80Q1.26-7.92 1.26-10.73L1.26-10.73Q1.26-13.68 2.32-15.88Q3.38-18.07 5.13-19.53Q6.88-20.99 9.13-21.71Q11.38-22.43 13.75-22.43L13.75-22.43Q17.17-22.43 19.17-21.33Q21.17-20.23 21.17-18.47L21.17-18.47Q21.17-17.53 20.70-16.85Q20.23-16.16 19.62-15.77L19.62-15.77Q18.72-16.31 17.37-16.83Q16.02-17.35 14.33-17.35L14.33-17.35Q11.30-17.35 9.52-15.62Q7.74-13.90 7.74-10.84L7.74-10.84Q7.74-9.18 8.23-7.97Q8.71-6.77 9.54-5.99Q10.37-5.22 11.45-4.84Q12.53-4.46 13.75-4.46L13.75-4.46Q14.54-4.46 15.16-4.61Q15.77-4.75 16.09-4.93L16.09-4.93L16.09-8.32L12.24-8.32Q12.02-8.71 11.83-9.36Q11.63-10.01 11.63-10.73L11.63-10.73Q11.63-12.02 12.22-12.60Q12.82-13.18 13.75-13.18L13.75-13.18L19.84-13.18Q20.92-13.18 21.51-12.58Q22.10-11.99 22.10-10.91L22.10-10.91Z" transform="translate(72.828 150.66) " fill="rgb(49, 49, 49)" stroke="rgb(49, 49, 49)" stroke-width="0.06" data-glyph-w="23.904000000000003" data-glyph-h="72.432" data-glyph-ascender="42.660000000000004" data-glyph-descender="-29.772000000000002"></path><path d="M6.55-11.09L0.83-19.15Q1.01-19.66 1.33-20.16Q1.66-20.66 2.14-21.08Q2.63-21.49 3.28-21.76Q3.92-22.03 4.72-22.03L4.72-22.03Q5.76-22.03 6.55-21.51Q7.34-20.99 8.17-19.73L8.17-19.73L10.98-15.44L15.12-21.56Q15.41-21.71 15.93-21.83Q16.45-21.96 16.96-21.96L16.96-21.96Q18.61-21.96 19.55-21.17Q20.48-20.38 20.48-19.22L20.48-19.22Q20.48-18.22 19.96-17.42Q19.44-16.63 18.54-15.52L18.54-15.52L14.83-10.98L20.70-2.59Q20.41-1.26 19.46-0.49Q18.50 0.29 16.88 0.29L16.88 0.29Q15.84 0.29 15.08-0.23Q14.33-0.76 13.54-2.02L13.54-2.02L10.62-6.62L6.08 0.22Q5.80 0.25 5.54 0.27Q5.29 0.29 5.04 0.29L5.04 0.29Q2.99 0.29 2.02-0.54Q1.04-1.37 1.04-2.59L1.04-2.59Q1.04-3.64 1.49-4.41Q1.94-5.18 2.77-6.23L2.77-6.23L6.55-11.09Z" transform="translate(96.732 150.66) " fill="rgb(49, 49, 49)" stroke="rgb(49, 49, 49)" stroke-width="0.06" data-glyph-w="21.636000000000003" data-glyph-h="72.432" data-glyph-ascender="42.660000000000004" data-glyph-descender="-29.772000000000002"></path><path d="M8.64-19.15L8.64-0.14Q8.24-0.04 7.40 0.07Q6.55 0.18 5.72 0.18L5.72 0.18Q4.90 0.18 4.27 0.05Q3.64-0.07 3.20-0.40Q2.77-0.72 2.56-1.30Q2.34-1.87 2.34-2.81L2.34-2.81L2.34-21.82Q2.74-21.89 3.60-22.01Q4.46-22.14 5.26-22.14L5.26-22.14Q6.08-22.14 6.71-22.01Q7.34-21.89 7.78-21.56Q8.21-21.24 8.42-20.66Q8.64-20.09 8.64-19.15L8.64-19.15Z" transform="translate(118.368 150.66) " fill="rgb(49, 49, 49)" stroke="rgb(49, 49, 49)" stroke-width="0.06" data-glyph-w="10.98" data-glyph-h="72.432" data-glyph-ascender="42.660000000000004" data-glyph-descender="-29.772000000000002"></path><path d="M6.98-21.17L6.98-21.17Q7.60-21.53 8.84-21.85Q10.08-22.18 11.34-22.18L11.34-22.18Q13.14-22.18 14.53-21.65Q15.91-21.13 16.31-20.02L16.31-20.02Q16.96-18.14 17.71-15.66Q18.47-13.18 19.22-10.53Q19.98-7.88 20.70-5.31Q21.42-2.74 21.96-0.76L21.96-0.76Q21.53-0.25 20.66 0.05Q19.80 0.36 18.61 0.36L18.61 0.36Q17.75 0.36 17.15 0.22Q16.56 0.07 16.18-0.22Q15.80-0.50 15.57-0.97Q15.34-1.44 15.16-2.05L15.16-2.05L14.51-4.54L7.99-4.54Q7.70-3.46 7.42-2.30Q7.13-1.15 6.84-0.07L6.84-0.07Q6.34 0.11 5.78 0.23Q5.22 0.36 4.43 0.36L4.43 0.36Q2.59 0.36 1.71-0.27Q0.83-0.90 0.83-2.02L0.83-2.02Q0.83-2.52 0.97-3.02Q1.12-3.53 1.30-4.21L1.30-4.21Q1.55-5.18 2.00-6.62Q2.45-8.06 2.99-9.74Q3.53-11.41 4.14-13.18Q4.75-14.94 5.29-16.51Q5.83-18.07 6.28-19.30Q6.73-20.52 6.98-21.17ZM11.52-16.52L11.30-16.52Q10.80-15.01 10.17-13.16Q9.54-11.30 9.04-9.40L9.04-9.40L13.50-9.40Q13.00-11.34 12.47-13.19Q11.95-15.05 11.52-16.52L11.52-16.52Z" transform="translate(129.34799999999998 150.66) " fill="rgb(49, 49, 49)" stroke="rgb(49, 49, 49)" stroke-width="0.06" data-glyph-w="22.572000000000003" data-glyph-h="72.432" data-glyph-ascender="42.660000000000004" data-glyph-descender="-29.772000000000002"></path></g></svg></g>
        </g>
  </svg>