<?xml version="1.0" standalone="no"?><!DOCTYPE svg PUBLIC "-//W3C//DTD SVG 1.1//EN" "http://www.w3.org/Graphics/SVG/1.1/DTD/svg11.dtd" [<!ENTITY nbsp " ">]><svg data-noselect="" viewBox="202.09152648465493 40.3102313799658 399.99999999999994 455.2028233777642" width="399.99999999999994" ref="svg_canvas" height="455.2028233777642" preserveAspectRatio="none" version="1.1" xmlns="http://www.w3.org/2000/svg" style="background: #FFFFFF;">
    <def></def>
    <g id="shape_JZfIU9uh3q" ref="shape_JZfIU9uh3q" key="shape_JZfIU9uh3q" transform="translate(309.22371408521997,120.3102313799658) rotate(0,92.867812399435,92.867812399435) scale(1,1)" style="cursor:move;display:inline;opacity:1;" filter="">
            <g style="display:inline"><rect fill="rgba(0,0,0,0)" width="205.73562479887" height="183.6714974881584" x="-10" y="-10"></rect><svg xmlns="http://www.w3.org/2000/svg" viewBox="0.001495361328125 -0.0000019073486328125 300.0771789550781 264.4300537109375" width="185.73562479887" height="163.6714974881584" class="style-removed" preserveAspectRatio="none" data-parent="shape_JZfIU9uh3q"><defs><linearGradient id="a4f5436fb-f4c7-4f5c-acb4-ee6d13a58459" x1="181.24" y1="12023.94" x2="106.65" y2="12151.8" gradientTransform="matrix(1 0 0 -1 0 12271.4)" gradientUnits="userSpaceOnUse"><stop offset=".12" stop-color="#50c1ff"></stop><stop offset=".49" stop-color="#22abff"></stop><stop offset="1" stop-color="#2071a8"></stop></linearGradient><linearGradient id="b56a8834f-f28f-4422-b8ba-d1c3bfd714da" x1="-3934.79" y1="-3330.98" x2="-3845.27" y2="-3273.98" gradientTransform="matrix(-1 0 0 1 -3726.86 3470.18)" gradientUnits="userSpaceOnUse"><stop offset=".12" stop-color="#50c1ff"></stop><stop offset=".49" stop-color="#22abff"></stop><stop offset="1" stop-color="#2071a8"></stop></linearGradient><linearGradient id="ca6bce3bc-30ae-4f60-9e58-8788718a5712" x1="-3798.02" y1="-3224.76" x2="-3798.02" y2="-3328.45" gradientTransform="matrix(-1 0 0 1 -3726.86 3470.18)" gradientUnits="userSpaceOnUse"><stop offset=".12" stop-color="#50c1ff"></stop><stop offset=".49" stop-color="#22abff"></stop><stop offset="1" stop-color="#2071a8"></stop></linearGradient><linearGradient id="d1545a2c3-852b-4f4f-8e15-5d34ed81ef8b" x1="58.89" y1="12174.41" x2="205.14" y2="12174.41" gradientTransform="matrix(1 0 0 -1 0 12271.4)" gradientUnits="userSpaceOnUse"><stop offset=".12" stop-color="#50c1ff"></stop><stop offset=".49" stop-color="#22abff"></stop><stop offset=".79" stop-color="#2071a8"></stop><stop offset="1" stop-color="#2071a8"></stop></linearGradient><linearGradient id="e06a6f979-3871-4504-8e20-1cccda8cbd13" x1="-4013.94" y1="-3330.98" x2="-3924.45" y2="-3274" gradientTransform="matrix(-1 0 0 1 -3726.86 3470.18)" gradientUnits="userSpaceOnUse"><stop offset=".12" stop-color="#50c1ff"></stop><stop offset=".49" stop-color="#22abff"></stop><stop offset="1" stop-color="#2071a8"></stop></linearGradient><linearGradient id="f64076699-b20b-46dd-ab84-b4aa07e235be" x1="180.95" y1="12023.78" x2="106.37" y2="12151.63" gradientTransform="matrix(1 0 0 -1 0 12271.4)" gradientUnits="userSpaceOnUse"><stop offset=".12" stop-color="#50c1ff"></stop><stop offset=".49" stop-color="#22abff"></stop><stop offset="1" stop-color="#2071a8"></stop></linearGradient><linearGradient id="g05440eef-e1f9-446e-9895-c0717bdb69c9" x1="-3855.49" y1="-3462.89" x2="-3956.48" y2="-3403.94" gradientTransform="matrix(-1 0 0 1 -3726.86 3470.18)" gradientUnits="userSpaceOnUse"><stop offset="0" stop-color="#50c1ff"></stop><stop offset=".27" stop-color="#22abff"></stop><stop offset=".6" stop-color="#2071a8"></stop></linearGradient><linearGradient id="h45abe8c4-adb0-43ed-9b36-043a20dacf15" x1="241.98" y1="12236.32" x2="167.61" y2="12108.25" gradientTransform="matrix(1 0 0 -1 0 12271.4)" gradientUnits="userSpaceOnUse"><stop offset=".12" stop-color="#50c1ff"></stop><stop offset=".65" stop-color="#22abff"></stop><stop offset="1" stop-color="#2071a8"></stop></linearGradient><linearGradient id="ia69e7fff-6c2d-4826-b778-dd47a81d09a7" x1="-3766.7" y1="-3440.87" x2="-3849.24" y2="-3440.87" gradientTransform="matrix(-1 0 0 1 -3726.86 3470.18)" gradientUnits="userSpaceOnUse"><stop offset=".04" stop-color="#50c1ff"></stop><stop offset=".12" stop-color="#50c1ff"></stop></linearGradient><linearGradient id="j620c7799-ea9c-4cf7-9748-b990a6360eee" x1="58.89" y1="12173.6" x2="205.14" y2="12173.6" gradientTransform="matrix(1 0 0 -1 0 12271.4)" gradientUnits="userSpaceOnUse"><stop offset=".12" stop-color="#50c1ff"></stop><stop offset=".49" stop-color="#22abff"></stop><stop offset=".79" stop-color="#2071a8"></stop><stop offset="1" stop-color="#2071a8"></stop></linearGradient></defs><g><g><path d="M180.68 188.92c-3.09-2.68-7.33-9.87-9.23-13.18L74.56 7.94s-5.18 18.8-14.73 28.8c-2.74 2.87-11 .77-13.39 3.83-5.18 10.89-11.52 12.71-1.8 29.54l66.14 114.55c6.1 10.57 11.16 11.34 20.9 11.18l38.86.1c11.95.01 12.74-4.76 10.14-7.02z" fill="url(#a4f5436fb-f4c7-4f5c-acb4-ee6d13a58459)"></path><path d="M185.8 73.8c-.78 4-4.89 11.28-6.8 14.59l-77.61 134.44s19.19 40.83 23.06 41.4c12-1 16.76 3.62 26.48-13.22l66.13-114.54c6.1-10.57 4.24-15.34-.77-23.68 0 0-15.63-27.26-19.34-33.7-5.95-10.37-10.49-8.68-11.15-5.29z" fill="url(#b56a8834f-f28f-4422-b8ba-d1c3bfd714da)"></path><path d="M141.1 257.42c-3.09-2.68-7.33-9.87-9.23-13.18L56.19 113.16S9.28 106 6.87 109.06C1.69 120-4.65 121.77 5.07 138.6l66.14 114.55c6.1 10.57 11.16 11.34 20.9 11.18l38.86.1c11.94.01 12.73-4.75 10.13-7.01z" fill="url(#ca6bce3bc-30ae-4f60-9e58-8788718a5712)"></path><path d="M65.22 125.49h177.47s37.93-37 36.49-40.66c-6.84-9.93-5.25-16.33-24.69-16.33H82.8z" fill="url(#d1545a2c3-852b-4f4f-8e15-5d34ed81ef8b)"></path><path d="M265 73.8c-.78 4-4.89 11.28-6.8 14.59l-77.34 134s18.91 41.32 22.77 41.88c12-1 16.76 3.62 26.48-13.22l66.13-114.54c6.1-10.57 4.24-15.34-.77-23.68 0 0-15.63-27.26-19.34-33.7-6-10.41-10.52-8.72-11.13-5.33z" fill="url(#e06a6f979-3871-4504-8e20-1cccda8cbd13)"></path><path d="M220.25 257.42c-3.09-2.68-7.33-9.87-9.23-13.18l-80.76-139.87s-73.48-13.06-63.76 3.77c8.26 14.3 83.85 145 83.85 145 6.1 10.57 11.16 11.34 20.9 11.18l38.86.1c11.95.02 12.74-4.74 10.14-7z" fill="url(#f64076699-b20b-46dd-ab84-b4aa07e235be)"></path><path d="M104.8 57h108.59s27.66-37 26.22-40.66C232.76 6.39 234.36 0 214.92 0h-92.54L95.64 32.93z" fill="url(#g05440eef-e1f9-446e-9895-c0717bdb69c9)"></path><path d="M256.63 68l-73.71 127.58-33-57.19 68.68-118.5c1.91-3.31 6-10.57 6.8-14.59.65-3.39 5.17-5.08 11.14 5.28 3.71 6.44 19.34 33.7 19.34 33.7 4.99 8.35 6.86 13.12.75 23.72z" fill="url(#h45abe8c4-adb0-43ed-9b36-043a20dacf15)"></path><path d="M122.38 0H82.65C70.44 0 67.24 4 62.52 12.51c0 0-15.79 27.17-19.51 33.6-6 10.35-2.26 13.41 1 12.28C47.88 57.06 56.22 57 60 57h44.8z" fill="url(#ia69e7fff-6c2d-4826-b778-dd47a81d09a7)"></path><path d="M165.7 68.49H43.08c-12.21 0-15.41 4-20.13 12.51 0 0-15.79 27.17-19.51 33.6-6 10.35-2.26 13.41 1 12.29 3.87-1.33 12.21-1.41 16-1.41h127.68z" fill="url(#j620c7799-ea9c-4cf7-9748-b990a6360eee)"></path></g></g></svg></g>
        </g><g id="shape_RwMyvYnIc6" ref="shape_RwMyvYnIc6" key="shape_RwMyvYnIc6" transform="translate(246.67152648465498,35.52765475772998) rotate(0,473.15837299071,333.9854) scale(1,1)" style="cursor:move;display:inline;opacity:1;" filter="">
            <g style="display:inline"><svg xmlns="http://www.w3.org/2000/svg" version="1.1" xmlns:xlink="http://www.w3.org/1999/xlink" width="496.68" height="667.9708" viewBox="0 0 496.68 667.9708" preserveAspectRatio="none" data-parent="shape_RwMyvYnIc6"><rect fill="rgba(0,0,0,0)" width="125" height="92" x="92.92" y="287.9854"></rect><g data-width="124.23404000000001" transform="translate(93.30297999999999, 0)"><path d="M43.67-0.19L43.67 8.46L32.80 8.46L22.86-14.87L13.19 8.46L2.51 8.46L2.51-0.19L7.71-0.19L18.40-25.74L7.71-51.48L2.51-51.48L2.51-60.12L13.19-60.12L22.86-36.61L32.80-60.12L43.67-60.12L43.67-51.48L38.19-51.48L27.50-25.74L38.19-0.19L43.67-0.19Z" transform="translate(0 347.9854) " fill="rgb(49, 49, 49)" stroke="rgb(49, 49, 49)" stroke-width="0.155" data-glyph-w="46.27416" data-glyph-h="108.62348" data-glyph-ascender="69.22540000000001" data-glyph-descender="-39.39808"></path><path d="M2.51 8.46L2.51-0.19L9.20-0.19L9.20-51.11L2.51-51.11L2.51-59.75L24.53-59.75L24.53-51.11L17.84-51.11L17.84-0.19L24.53-0.19L24.53 8.46L2.51 8.46Z" transform="translate(46.27416 347.9854) " fill="rgb(49, 49, 49)" stroke="rgb(49, 49, 49)" stroke-width="0.155" data-glyph-w="27.132640000000002" data-glyph-h="108.62348" data-glyph-ascender="69.22540000000001" data-glyph-descender="-39.39808"></path><path d="M48.41 8.46L39.68 8.46L35.96-9.76L14.77-9.76L11.06 8.46L2.32 8.46L15.80-59.65L34.57-59.65L48.41 8.46ZM27.41-51.01L23.04-51.01L16.54-18.31L34.10-18.31L27.41-51.01Z" transform="translate(73.4068 347.9854) " fill="rgb(49, 49, 49)" stroke="rgb(49, 49, 49)" stroke-width="0.155" data-glyph-w="50.82724" data-glyph-h="108.62348" data-glyph-ascender="69.22540000000001" data-glyph-descender="-39.39808"></path></g></svg></g>
        </g>
  </svg>