<?xml version="1.0" standalone="no"?><!DOCTYPE svg PUBLIC "-//W3C//DTD SVG 1.1//EN" "http://www.w3.org/Graphics/SVG/1.1/DTD/svg11.dtd" [<!ENTITY nbsp " ">]><svg data-noselect="" viewBox="207.00002148438 111.97452087463509 400 316.26621322570486" width="400" ref="svg_canvas" height="316.26621322570486" preserveAspectRatio="none" version="1.1" xmlns="http://www.w3.org/2000/svg" 
style="background: rgba(215, 227, 205,0);">
    <def></def>
    <g id="shape_vH7cG6ZvhZ" ref="shape_vH7cG6ZvhZ" key="shape_vH7cG6ZvhZ" transform="translate(356.75003051758,191.9745208746351) rotate(0,50.25,50.25) scale(1,1)" style="cursor:move;display:inline;opacity:1;" filter="">
            <g style="display:inline"><rect fill="rgba(0,0,0,0)" width="120.5" height="120.49999389526981" x="-10" y="-10"></rect><svg version="1.1" id="图层_1" xmlns="http://www.w3.org/2000/svg" xmlns:xlink="http://www.w3.org/1999/xlink" x="0px" y="0px" width="100.5" height="100.49999389526981" viewBox="0 0 62.80000305175781 62.79999923706055" style="enable-background:new 0 0 62.8 62.8;" xml:space="preserve" class="style-removed" preserveAspectRatio="none" data-parent="shape_vH7cG6ZvhZ">

<g>
	<path d="M2.2,19.7C0.8,23.3,0,27.3,0,31.4c0,5,1.2,9.7,3.2,13.8l9.5-12.3L2.2,19.7z" fill="#6F9F75"></path>
	<path d="M24.9,48.3l-4.8,6.2h-10c5.6,5.2,13.1,8.3,21.3,8.3s15.7-3.2,21.3-8.3H29.8L24.9,48.3z" fill="#6F9F75"></path>
	<path d="M31.4,0C21.5,0,12.6,4.6,6.9,11.8h13.3l4.5,5.6l4.3-5.6h24L39,30l-2.8-3.7l7.7-10H31.2l-6.5,8.4L18,16.3H5.3
		l13.1,16.6L5.7,49.4c0.1,0.2,0.3,0.4,0.4,0.6h11.8l6.9-9l7.2,9h12.7L28.6,29.6l2.8-3.7l22,27.8c5.8-5.7,9.4-13.6,9.4-22.4
		C62.8,14.1,48.7,0,31.4,0z" fill="#6F9F75"></path>
</g>
</svg></g>
        </g><g id="shape_9E1o3FQheA" ref="shape_9E1o3FQheA" key="shape_9E1o3FQheA" transform="translate(301.00002148438,132.24073410033998) rotate(0,343.178,189) scale(1,1)" style="cursor:move;display:inline;opacity:1;" filter="">
            <g style="display:inline"><svg xmlns="http://www.w3.org/2000/svg" version="1.1" xmlns:xlink="http://www.w3.org/1999/xlink" width="320" height="378" viewBox="0 0 320 378" preserveAspectRatio="none" data-parent="shape_9E1o3FQheA"><rect fill="rgba(0,0,0,0)" width="104" height="54" x="54" y="162"></rect><g data-width="103.464" transform="translate(54.268, 0)"><path d="M43.52-3.94L43.52-3.94Q43.31-3.94 43.15-3.97Q42.98-4.00 42.77-4.05L42.77-4.05Q40.39-4.54 38.12-5.67Q35.86-6.80 34.07-8.37Q32.29-9.94 31.21-11.85Q30.13-13.77 30.13-15.71L30.13-15.71Q30.13-17.66 31.21-19.55Q32.29-21.44 34.07-23.03Q35.86-24.62 38.12-25.76Q40.39-26.89 42.77-27.38L42.77-27.38Q42.98-27.43 43.15-27.46Q43.31-27.49 43.52-27.49L43.52-27.49Q44.60-27.49 45.36-26.73Q46.12-25.97 46.12-24.89L46.12-24.89Q46.12-23.87 45.41-23.19Q44.71-22.52 43.69-22.30L43.69-22.30Q42.01-21.92 40.50-21.22Q38.99-20.52 37.83-19.63Q36.67-18.74 35.99-17.74Q35.32-16.74 35.32-15.71L35.32-15.71Q35.32-14.69 35.99-13.66Q36.67-12.64 37.83-11.74Q38.99-10.85 40.50-10.15Q42.01-9.45 43.69-9.13L43.69-9.13Q44.71-8.91 45.41-8.23Q46.12-7.56 46.12-6.53L46.12-6.53Q46.12-5.45 45.36-4.70Q44.60-3.94 43.52-3.94ZM21.06-15.71L21.06-15.71Q21.06-17.12 22.03-18.09Q23.00-19.06 24.41-19.06L24.41-19.06Q25.81-19.06 26.78-18.09Q27.76-17.12 27.76-15.71L27.76-15.71Q27.76-14.31 26.78-13.34Q25.81-12.37 24.41-12.37L24.41-12.37Q23.00-12.37 22.03-13.34Q21.06-14.31 21.06-15.71ZM5.29-3.94L5.29-3.94Q4.21-3.94 3.46-4.70Q2.70-5.45 2.70-6.53L2.70-6.53Q2.70-7.56 3.40-8.23Q4.10-8.91 5.13-9.13L5.13-9.13Q6.80-9.45 8.32-10.15Q9.83-10.85 10.99-11.74Q12.15-12.64 12.82-13.66Q13.50-14.69 13.50-15.71L13.50-15.71Q13.50-16.74 12.82-17.74Q12.15-18.74 10.99-19.63Q9.83-20.52 8.32-21.22Q6.80-21.92 5.13-22.30L5.13-22.30Q4.10-22.52 3.40-23.19Q2.70-23.87 2.70-24.89L2.70-24.89Q2.70-25.97 3.46-26.73Q4.21-27.49 5.29-27.49L5.29-27.49Q5.51-27.49 5.67-27.46Q5.83-27.43 6.05-27.38L6.05-27.38Q8.42-26.89 10.69-25.76Q12.96-24.62 14.74-23.03Q16.52-21.44 17.60-19.55Q18.68-17.66 18.68-15.71L18.68-15.71Q18.68-13.77 17.60-11.85Q16.52-9.94 14.74-8.37Q12.96-6.80 10.69-5.67Q8.42-4.54 6.05-4.05L6.05-4.05Q5.83-4.00 5.67-3.97Q5.51-3.94 5.29-3.94Z" transform="translate(0 206) " fill="rgb(111, 159, 117)" stroke="rgb(111, 159, 117)" stroke-width="0.09" data-glyph-w="48.816" data-glyph-h="51.3" data-glyph-ascender="43.2" data-glyph-descender="-8.1"></path><path d="M7.88-24.89L7.88-6.53Q7.88-5.45 7.13-4.70Q6.37-3.94 5.29-3.94L5.29-3.94Q4.21-3.94 3.46-4.70Q2.70-5.45 2.70-6.53L2.70-6.53L2.70-24.89Q2.70-25.97 3.46-26.73Q4.21-27.49 5.29-27.49L5.29-27.49Q6.37-27.49 7.13-26.73Q7.88-25.97 7.88-24.89L7.88-24.89Z" transform="translate(48.816 206) " fill="rgb(111, 159, 117)" stroke="rgb(111, 159, 117)" stroke-width="0.09" data-glyph-w="10.584" data-glyph-h="51.3" data-glyph-ascender="43.2" data-glyph-descender="-8.1"></path><path d="M19.98-21.76L7.29-4.91Q6.48-3.94 5.29-3.94L5.29-3.94Q4.21-3.94 3.46-4.70Q2.70-5.45 2.70-6.53L2.70-6.53Q2.70-7.51 3.24-8.10L3.24-8.10L16.36-25.76Q17.28-27 18.79-27.78Q20.30-28.57 22.03-28.57L22.03-28.57Q23.65-28.57 25.11-27.86Q26.57-27.16 27.49-25.92L27.49-25.92L40.61-8.37Q40.93-7.99 41.15-7.53Q41.36-7.07 41.36-6.53L41.36-6.53Q41.36-5.45 40.61-4.70Q39.85-3.94 38.77-3.94L38.77-3.94Q37.48-3.94 36.72-4.97L36.72-4.97L24.14-21.76Q23.76-22.19 23.19-22.71Q22.63-23.22 22.03-23.22L22.03-23.22Q21.44-23.22 20.87-22.71Q20.30-22.19 19.98-21.76L19.98-21.76Z" transform="translate(59.400000000000006 206) " fill="rgb(111, 159, 117)" stroke="rgb(111, 159, 117)" stroke-width="0.09" data-glyph-w="44.064" data-glyph-h="51.3" data-glyph-ascender="43.2" data-glyph-descender="-8.1"></path></g></svg></g>
        </g>
  </svg>